<svg xmlns="http://www.w3.org/2000/svg" viewBox="0 0 880 320" font-family="system-ui, -apple-system, sans-serif" font-size="13">
  <rect width="880" height="320" fill="#ffffff"/>
  <text x="440" y="26" text-anchor="middle" font-size="16" font-weight="600" fill="#111827">Reading Roadmap</text>

  <!-- Five horizontal bands stacked vertically -->
  <!-- Each band: 800 wide, 38 tall, with a label area -->

  <!-- Part 1: Foundations (Ch 1-3) -->
  <g transform="translate(40, 60)">
    <rect width="800" height="38" fill="#dbeafe" stroke="#1e40af" stroke-width="1.4" rx="4"/>
    <text x="14" y="24" font-weight="700" fill="#1e40af">1 · Foundations</text>
    <text x="180" y="24" fill="#1e40af">math · WebGPU API fundamentals</text>
    <!-- Chapter chips -->
    <g font-family="ui-monospace, Consolas, monospace" font-size="11">
      <rect x="700" y="10" width="30" height="18" fill="#ffffff" stroke="#1e40af" rx="3"/>
      <text x="715" y="23" text-anchor="middle" fill="#1e40af">1</text>
      <rect x="734" y="10" width="30" height="18" fill="#ffffff" stroke="#1e40af" rx="3"/>
      <text x="749" y="23" text-anchor="middle" fill="#1e40af">2</text>
      <rect x="768" y="10" width="30" height="18" fill="#ffffff" stroke="#1e40af" rx="3"/>
      <text x="783" y="23" text-anchor="middle" fill="#1e40af">3</text>
    </g>
  </g>

  <!-- Part 2: Rendering (Ch 4-11) -->
  <g transform="translate(40, 108)">
    <rect width="800" height="38" fill="#fce7f3" stroke="#9d174d" stroke-width="1.4" rx="4"/>
    <text x="14" y="24" font-weight="700" fill="#9d174d">2 · Rendering</text>
    <text x="180" y="24" fill="#9d174d">render graph · meshes · textures · lighting · shadows · post-FX · sky · terrain</text>
    <g font-family="ui-monospace, Consolas, monospace" font-size="11">
      <rect x="496" y="10" width="30" height="18" fill="#ffffff" stroke="#9d174d" rx="3"/>
      <text x="511" y="23" text-anchor="middle" fill="#9d174d">4</text>
      <rect x="530" y="10" width="30" height="18" fill="#ffffff" stroke="#9d174d" rx="3"/>
      <text x="545" y="23" text-anchor="middle" fill="#9d174d">5</text>
      <rect x="564" y="10" width="30" height="18" fill="#ffffff" stroke="#9d174d" rx="3"/>
      <text x="579" y="23" text-anchor="middle" fill="#9d174d">6</text>
      <rect x="598" y="10" width="30" height="18" fill="#ffffff" stroke="#9d174d" rx="3"/>
      <text x="613" y="23" text-anchor="middle" fill="#9d174d">7</text>
      <rect x="632" y="10" width="30" height="18" fill="#ffffff" stroke="#9d174d" rx="3"/>
      <text x="647" y="23" text-anchor="middle" fill="#9d174d">8</text>
      <rect x="666" y="10" width="30" height="18" fill="#ffffff" stroke="#9d174d" rx="3"/>
      <text x="681" y="23" text-anchor="middle" fill="#9d174d">9</text>
      <rect x="700" y="10" width="30" height="18" fill="#ffffff" stroke="#9d174d" rx="3"/>
      <text x="715" y="23" text-anchor="middle" fill="#9d174d">10</text>
      <rect x="734" y="10" width="30" height="18" fill="#ffffff" stroke="#9d174d" rx="3"/>
      <text x="749" y="23" text-anchor="middle" fill="#9d174d">11</text>
    </g>
  </g>

  <!-- Part 3: Game Engine (Ch 12-15) -->
  <g transform="translate(40, 156)">
    <rect width="800" height="38" fill="#dcfce7" stroke="#166534" stroke-width="1.4" rx="4"/>
    <text x="14" y="24" font-weight="700" fill="#166534">3 · Game Engine</text>
    <text x="180" y="24" fill="#166534">components · scenes · physics · audio · UI</text>
    <g font-family="ui-monospace, Consolas, monospace" font-size="11">
      <rect x="666" y="10" width="30" height="18" fill="#ffffff" stroke="#166534" rx="3"/>
      <text x="681" y="23" text-anchor="middle" fill="#166534">12</text>
      <rect x="700" y="10" width="30" height="18" fill="#ffffff" stroke="#166534" rx="3"/>
      <text x="715" y="23" text-anchor="middle" fill="#166534">13</text>
      <rect x="734" y="10" width="30" height="18" fill="#ffffff" stroke="#166534" rx="3"/>
      <text x="749" y="23" text-anchor="middle" fill="#166534">14</text>
      <rect x="768" y="10" width="30" height="18" fill="#ffffff" stroke="#166534" rx="3"/>
      <text x="783" y="23" text-anchor="middle" fill="#166534">15</text>
    </g>
  </g>

  <!-- Part 4: Multiplayer (Ch 16-17) -->
  <g transform="translate(40, 204)">
    <rect width="800" height="38" fill="#fef3c7" stroke="#92400e" stroke-width="1.4" rx="4"/>
    <text x="14" y="24" font-weight="700" fill="#92400e">4 · Multiplayer</text>
    <text x="180" y="24" fill="#92400e">WebSocket networking · state sync · snapshot interpolation</text>
    <g font-family="ui-monospace, Consolas, monospace" font-size="11">
      <rect x="734" y="10" width="30" height="18" fill="#ffffff" stroke="#92400e" rx="3"/>
      <text x="749" y="23" text-anchor="middle" fill="#92400e">16</text>
      <rect x="768" y="10" width="30" height="18" fill="#ffffff" stroke="#92400e" rx="3"/>
      <text x="783" y="23" text-anchor="middle" fill="#92400e">17</text>
    </g>
  </g>

  <!-- Part 5: Advanced Topics (Ch 18-20) -->
  <g transform="translate(40, 252)">
    <rect width="800" height="38" fill="#ede9fe" stroke="#5b21b6" stroke-width="1.4" rx="4"/>
    <text x="14" y="24" font-weight="700" fill="#5b21b6">5 · Advanced</text>
    <text x="180" y="24" fill="#5b21b6">performance · tools · future directions</text>
    <g font-family="ui-monospace, Consolas, monospace" font-size="11">
      <rect x="700" y="10" width="30" height="18" fill="#ffffff" stroke="#5b21b6" rx="3"/>
      <text x="715" y="23" text-anchor="middle" fill="#5b21b6">18</text>
      <rect x="734" y="10" width="30" height="18" fill="#ffffff" stroke="#5b21b6" rx="3"/>
      <text x="749" y="23" text-anchor="middle" fill="#5b21b6">19</text>
      <rect x="768" y="10" width="30" height="18" fill="#ffffff" stroke="#5b21b6" rx="3"/>
      <text x="783" y="23" text-anchor="middle" fill="#5b21b6">20</text>
    </g>
  </g>

  <text x="440" y="306" text-anchor="middle" font-size="12" fill="#6b7280" font-style="italic">Each part builds on the ones above it — but jump ahead to whatever interests you.</text>
</svg>
