<svg xmlns="http://www.w3.org/2000/svg" viewBox="0 0 560 390" font-family="system-ui, -apple-system, sans-serif" font-size="13">
  <rect width="560" height="390" fill="#ffffff"/>
  <text x="280" y="26" text-anchor="middle" font-size="16" font-weight="600" fill="#111827">lookAt: Building a Camera Basis</text>

  <defs>
    <marker id="laF" viewBox="0 0 10 10" refX="9" refY="5" markerWidth="8" markerHeight="8" orient="auto-start-reverse">
      <path d="M0,0 L10,5 L0,10 z" fill="#2563eb"/>
    </marker>
    <marker id="laR" viewBox="0 0 10 10" refX="9" refY="5" markerWidth="8" markerHeight="8" orient="auto-start-reverse">
      <path d="M0,0 L10,5 L0,10 z" fill="#dc2626"/>
    </marker>
    <marker id="laU" viewBox="0 0 10 10" refX="9" refY="5" markerWidth="8" markerHeight="8" orient="auto-start-reverse">
      <path d="M0,0 L10,5 L0,10 z" fill="#16a34a"/>
    </marker>
    <marker id="laGray" viewBox="0 0 10 10" refX="9" refY="5" markerWidth="7" markerHeight="7" orient="auto-start-reverse">
      <path d="M0,0 L10,5 L0,10 z" fill="#9ca3af"/>
    </marker>
  </defs>

  <!-- World up reference (faint) -->
  <g transform="translate(140, 230)">
    <line x1="0" y1="0" x2="0" y2="-60" stroke="#9ca3af" stroke-width="1.5" stroke-dasharray="4,3" marker-end="url(#laGray)"/>
    <text x="6" y="-62" fill="#6b7280" font-size="11" font-style="italic">world up</text>
  </g>

  <!-- Target -->
  <g transform="translate(440, 130)">
    <circle cx="0" cy="0" r="8" fill="#fef3c7" stroke="#f59e0b" stroke-width="1.5"/>
    <text x="0" y="-16" text-anchor="middle" fill="#92400e" font-weight="600">target</text>
  </g>

  <!-- Camera at (140, 230) -->
  <g transform="translate(140, 230)">
    <!-- Camera body (small frustum/box) -->
    <polygon points="-14,-10 14,-10 14,10 -14,10" fill="#e5e7eb" stroke="#374151" stroke-width="1.2"/>
    <polygon points="14,-10 26,-18 26,18 14,10" fill="#d1d5db" stroke="#374151" stroke-width="1.2"/>
    <text x="-30" y="22" text-anchor="end" fill="#111827" font-weight="600">eye</text>

    <!-- f = forward = normalize(target - eye) -->
    <line x1="20" y1="-4" x2="240" y2="-104" stroke="#2563eb" stroke-width="2.5" marker-end="url(#laF)"/>
    <text x="150" y="-66" fill="#2563eb" font-weight="700">f</text>
    <text x="150" y="-50" fill="#2563eb" font-size="11" font-style="italic">= norm(target − eye)</text>

    <!-- r = forward × up_world (perpendicular to f, points to camera's right; here roughly down-right) -->
    <line x1="20" y1="-4" x2="120" y2="50" stroke="#dc2626" stroke-width="2.5" marker-end="url(#laR)"/>
    <text x="78" y="44" fill="#dc2626" font-weight="700">r</text>
    <text x="100" y="62" fill="#dc2626" font-size="11" font-style="italic">= f × up</text>

    <!-- u = r × f (true up, orthogonalized) -->
    <line x1="20" y1="-4" x2="-40" y2="-94" stroke="#16a34a" stroke-width="2.5" marker-end="url(#laU)"/>
    <text x="-44" y="-96" fill="#16a34a" font-weight="700" text-anchor="end">u</text>
    <text x="-44" y="-80" fill="#16a34a" font-size="11" font-style="italic" text-anchor="end">= r × f</text>
  </g>

  <!-- Equation box (shifted down so the "= f × up" label clears the box) -->
  <g transform="translate(40, 320)">
    <rect x="0" y="0" width="480" height="60" fill="#f3f4f6" stroke="#9ca3af" rx="4"/>
    <text x="14" y="22" font-weight="600" fill="#111827">Three steps:</text>
    <text x="14" y="42" font-family="ui-monospace, Consolas, monospace" fill="#374151">
      <tspan fill="#2563eb" font-weight="700">f</tspan> = norm(target − eye) ;
      <tspan fill="#dc2626" font-weight="700">r</tspan> = norm(<tspan fill="#2563eb">f</tspan> × up<sub>world</sub>) ;
      <tspan fill="#16a34a" font-weight="700">u</tspan> = <tspan fill="#dc2626">r</tspan> × <tspan fill="#2563eb">f</tspan>
    </text>
  </g>
</svg>
