<svg xmlns="http://www.w3.org/2000/svg" viewBox="0 0 760 350" font-family="system-ui, -apple-system, sans-serif" font-size="13">
  <rect width="760" height="350" fill="#ffffff"/>
  <text x="380" y="26" text-anchor="middle" font-size="16" font-weight="600" fill="#111827">TRS Composition: Scale → Rotate → Translate</text>

  <defs>
    <marker id="trsArr" viewBox="0 0 10 10" refX="9" refY="5" markerWidth="9" markerHeight="9" orient="auto-start-reverse">
      <path d="M0,0 L10,5 L0,10 z" fill="#374151"/>
    </marker>
    <!-- Reusable cube as 3 visible faces (top, front, right) -->
    <symbol id="cube" overflow="visible">
      <!-- Top face -->
      <polygon points="-30,-30 30,-30 50,-50 -10,-50" fill="#bfdbfe" stroke="#1e40af" stroke-width="1.2"/>
      <!-- Front face -->
      <polygon points="-30,-30 30,-30 30,30 -30,30" fill="#dbeafe" stroke="#1e40af" stroke-width="1.2"/>
      <!-- Right face -->
      <polygon points="30,-30 50,-50 50,10 30,30" fill="#93c5fd" stroke="#1e40af" stroke-width="1.2"/>
    </symbol>
  </defs>

  <!-- Step 1: original (identity) -->
  <g transform="translate(80, 160)">
    <use href="#cube"/>
    <text x="0" y="78" text-anchor="middle" font-weight="600" fill="#111827">1. Local cube</text>
    <text x="0" y="96" text-anchor="middle" fill="#6b7280" font-size="11" font-style="italic">unit size, axis-aligned</text>
  </g>

  <line x1="170" y1="160" x2="220" y2="160" stroke="#374151" stroke-width="2" marker-end="url(#trsArr)"/>
  <text x="195" y="148" text-anchor="middle" font-size="12" fill="#dc2626" font-weight="600">S</text>

  <!-- Step 2: scaled (wider in X, taller in Y) -->
  <g transform="translate(280, 160) scale(1.5, 1.2)">
    <use href="#cube"/>
  </g>
  <g transform="translate(280, 160)">
    <text x="0" y="98" text-anchor="middle" font-weight="600" fill="#111827">2. Scaled</text>
    <text x="0" y="116" text-anchor="middle" fill="#6b7280" font-size="11" font-style="italic">non-uniform scale applied</text>
  </g>

  <line x1="380" y1="160" x2="430" y2="160" stroke="#374151" stroke-width="2" marker-end="url(#trsArr)"/>
  <text x="405" y="148" text-anchor="middle" font-size="12" fill="#dc2626" font-weight="600">R</text>

  <!-- Step 3: scaled + rotated -->
  <g transform="translate(490, 160) rotate(-25) scale(1.5, 1.2)">
    <use href="#cube"/>
  </g>
  <g transform="translate(490, 160)">
    <text x="0" y="98" text-anchor="middle" font-weight="600" fill="#111827">3. Rotated</text>
    <text x="0" y="116" text-anchor="middle" fill="#6b7280" font-size="11" font-style="italic">rotation about origin</text>
  </g>

  <line x1="580" y1="160" x2="620" y2="120" stroke="#374151" stroke-width="2" marker-end="url(#trsArr)"/>
  <text x="610" y="146" text-anchor="middle" font-size="12" fill="#dc2626" font-weight="600">T</text>

  <!-- Step 4: scaled + rotated + translated -->
  <g transform="translate(680, 110) rotate(-25) scale(1.5, 1.2)">
    <use href="#cube"/>
  </g>
  <g transform="translate(680, 110)">
    <text x="0" y="68" text-anchor="middle" font-weight="600" fill="#111827">4. Translated</text>
    <text x="0" y="86" text-anchor="middle" fill="#6b7280" font-size="11" font-style="italic">moved to world position</text>
  </g>

  <!-- Origin marker for steps 1-3 -->
  <circle cx="80" cy="160" r="2.5" fill="#dc2626"/>
  <circle cx="280" cy="160" r="2.5" fill="#dc2626"/>
  <circle cx="490" cy="160" r="2.5" fill="#dc2626"/>

  <!-- Equation footer (shifted down so the per-step subtitles don't clip the box top) -->
  <g transform="translate(160, 300)">
    <rect x="0" y="0" width="440" height="40" fill="#f3f4f6" stroke="#9ca3af" rx="4"/>
    <text x="220" y="26" text-anchor="middle" font-family="ui-monospace, Consolas, monospace" fill="#111827">M = T · R · S — applied right-to-left to a vertex</text>
  </g>
</svg>
