<svg xmlns="http://www.w3.org/2000/svg" viewBox="0 0 760 444" font-family="system-ui, -apple-system, sans-serif" font-size="13">
  <rect width="760" height="444" fill="#ffffff"/>
  <text x="380" y="26" text-anchor="middle" font-size="16" font-weight="600" fill="#111827">Perspective Frustum → Clip / NDC Cube</text>

  <defs>
    <marker id="vfArr" viewBox="0 0 10 10" refX="9" refY="5" markerWidth="8" markerHeight="8" orient="auto-start-reverse">
      <path d="M0,0 L10,5 L0,10 z" fill="#374151"/>
    </marker>
  </defs>

  <!-- ===== LEFT: side view of frustum ===== -->
  <g transform="translate(60, 70)">
    <text x="140" y="-6" text-anchor="middle" font-weight="600" fill="#111827">View space (camera)</text>

    <!-- fovY angle arc — drawn before the eye dot, label far to the left of the eye -->
    <path d="M 56,128 A 36,36 0 0 0 56,152" stroke="#7c3aed" stroke-width="1.5" fill="none"/>
    <text x="-2" y="144" text-anchor="end" fill="#7c3aed" font-weight="600" font-size="12">fovY</text>
    <!-- thin connector from "fovY" label to the arc, so the relationship reads even with the label moved away -->
    <line x1="2" y1="140" x2="50" y2="140" stroke="#7c3aed" stroke-width="0.8" stroke-dasharray="3,2"/>

    <!-- Frustum lines (top and bottom) -->
    <line x1="20" y1="140" x2="280" y2="20"  stroke="#2563eb" stroke-width="1.6"/>
    <line x1="20" y1="140" x2="280" y2="260" stroke="#2563eb" stroke-width="1.6"/>

    <!-- Near plane -->
    <line x1="80" y1="112" x2="80" y2="168" stroke="#16a34a" stroke-width="2"/>
    <text x="80" y="186" text-anchor="middle" fill="#16a34a" font-weight="600">near</text>

    <!-- Far plane -->
    <line x1="260" y1="29" x2="260" y2="251" stroke="#dc2626" stroke-width="2"/>
    <text x="260" y="270" text-anchor="middle" fill="#dc2626" font-weight="600">far</text>

    <!-- Frustum interior shading -->
    <polygon points="80,112 260,29 260,251 80,168" fill="#dbeafe" opacity="0.45"/>

    <!-- Camera/eye (drawn last so the dot sits on top of the arc) -->
    <circle cx="20" cy="140" r="6" fill="#111827"/>
    <text x="20" y="166" text-anchor="middle" fill="#111827" font-size="12">eye</text>

    <!-- −Z arrow (forward) — kept above the bottom note box -->
    <line x1="20" y1="294" x2="280" y2="294" stroke="#374151" stroke-width="1.5" marker-end="url(#vfArr)"/>
    <text x="150" y="312" text-anchor="middle" fill="#374151" font-style="italic">−Z (view direction)</text>
  </g>

  <!-- ===== Arrow between ===== -->
  <g transform="translate(360, 200)">
    <line x1="0" y1="0" x2="60" y2="0" stroke="#374151" stroke-width="2" marker-end="url(#vfArr)"/>
    <text x="30" y="-12" text-anchor="middle" font-size="12" fill="#6b7280">projection</text>
    <text x="30" y="22" text-anchor="middle" font-size="12" fill="#6b7280">+ perspective divide</text>
  </g>

  <!-- ===== RIGHT: NDC cube ===== -->
  <g transform="translate(440, 70)">
    <text x="140" y="-6" text-anchor="middle" font-weight="600" fill="#111827">NDC cube</text>

    <!-- Back face -->
    <polygon points="80,40 240,40 240,200 80,200" fill="#dcfce7" stroke="#16a34a" stroke-width="1.2" opacity="0.7"/>
    <!-- Front face -->
    <polygon points="40,80 200,80 200,240 40,240" fill="#fee2e2" stroke="#dc2626" stroke-width="1.5" opacity="0.85"/>
    <!-- Connecting edges -->
    <g stroke="#374151" stroke-width="1" stroke-dasharray="3,3">
      <line x1="40" y1="80"  x2="80" y2="40"/>
      <line x1="200" y1="80" x2="240" y2="40"/>
      <line x1="200" y1="240" x2="240" y2="200"/>
      <line x1="40" y1="240" x2="80" y2="200"/>
    </g>

    <!-- Axis labels (all placed in clear whitespace OUTSIDE both faces and dashed edges) -->
    <text x="120" y="270" text-anchor="middle" fill="#111827" font-family="ui-monospace, Consolas, monospace" font-size="11">x ∈ [−1, 1]</text>
    <text x="14" y="160" text-anchor="middle" fill="#111827" font-family="ui-monospace, Consolas, monospace" font-size="11" transform="rotate(-90 14 160)">y ∈ [−1, 1]</text>

    <!-- z = 1 (far): centered above the back face, well clear of the cube graphics and the right edge -->
    <text x="160" y="32" text-anchor="middle" fill="#16a34a" font-family="ui-monospace, Consolas, monospace" font-size="11" font-weight="600">z = 1 (far)</text>

    <!-- z = 0 (near): centered below the front face, above the x label -->
    <text x="120" y="256" text-anchor="middle" fill="#dc2626" font-family="ui-monospace, Consolas, monospace" font-size="11" font-weight="600">z = 0 (near)</text>
  </g>

  <!-- ===== Bottom note ===== -->
  <g transform="translate(60, 392)">
    <rect width="640" height="40" fill="#f3f4f6" stroke="#9ca3af" stroke-width="1" rx="4"/>
    <text x="14" y="18" font-style="italic" fill="#6b7280" font-size="11">WebGPU depth: z ∈ [0, 1]   ·   OpenGL uses z ∈ [−1, 1]</text>
    <text x="14" y="32" font-style="italic" fill="#6b7280" font-size="11">The −1 in column 2 row 3 of Crafty's projection matrix flips the z-divide sign for the WebGPU range.</text>
  </g>
</svg>
