<svg xmlns="http://www.w3.org/2000/svg" viewBox="0 0 920 500" font-family="system-ui, -apple-system, sans-serif" font-size="13">
  <rect width="920" height="500" fill="#ffffff"/>
  <text x="460" y="26" text-anchor="middle" font-size="16" font-weight="600" fill="#111827">HDR Target: Central Buffer for Lighting and Post-Processing</text>

  <defs>
    <marker id="hdrArr" viewBox="0 0 10 10" refX="9" refY="5" markerWidth="9" markerHeight="9" orient="auto-start-reverse">
      <path d="M0,0 L10,5 L0,10 z" fill="#374151"/>
    </marker>
    <marker id="hdrArr2" viewBox="0 0 10 10" refX="9" refY="5" markerWidth="9" markerHeight="9" orient="auto-start-reverse">
      <path d="M0,0 L10,5 L0,10 z" fill="#0891b2"/>
    </marker>
  </defs>

  <!-- ===== Lighting pass (writes HDR initially) ===== -->
  <g transform="translate(310, 56)">
    <rect x="0" y="0" width="300" height="50" fill="#ede9fe" stroke="#7c3aed" stroke-width="1.4" rx="6"/>
    <text x="150" y="22" text-anchor="middle" font-weight="700" fill="#4c1d95">DeferredLightingPass + PointSpotLightPass</text>
    <text x="150" y="40" text-anchor="middle" font-size="10" fill="#4c1d95">deferred lighting reads G-buffer · writes HDR</text>
  </g>

  <!-- Arrow down from lighting to HDR -->
  <line x1="460" y1="106" x2="460" y2="138" stroke="#374151" stroke-width="1.6" marker-end="url(#hdrArr)"/>

  <!-- ===== Central HDR target ===== -->
  <g transform="translate(310, 140)">
    <rect x="0" y="0" width="300" height="160" fill="#fef3c7" stroke="#a16207" stroke-width="2.2" rx="8"/>
    <text x="150" y="32" text-anchor="middle" font-size="15" font-weight="700" fill="#713f12">HDR target</text>
    <text x="150" y="54" text-anchor="middle" font-size="11" font-family="ui-monospace, Consolas, monospace" fill="#713f12">rgba16float · canvas-sized</text>
    <text x="150" y="84" text-anchor="middle" font-size="11" font-style="italic" fill="#713f12">linear scene radiance,</text>
    <text x="150" y="100" text-anchor="middle" font-size="11" font-style="italic" fill="#713f12">values can exceed 1.0</text>

    <text x="150" y="130" text-anchor="middle" font-size="10" fill="#a16207">handle versioned by every load+write;</text>
    <text x="150" y="146" text-anchor="middle" font-size="10" fill="#a16207">the cache reuses one physical texture</text>
  </g>

  <!-- ===== Post-processing passes (right side, ping-pong with HDR) ===== -->
  <g transform="translate(660, 140)">
    <text x="100" y="-6" text-anchor="middle" font-size="11" font-weight="700" fill="#155e75">post-processing (read + write HDR)</text>

    <!-- 5 chips stacked, each 36 high, gap 4 -->
    <g font-size="11" fill="#155e75">
      <rect x="0" y="0"   width="200" height="28" fill="#cffafe" stroke="#0891b2" stroke-width="1" rx="3"/>
      <text x="100" y="18" text-anchor="middle">TAAPass</text>

      <rect x="0" y="32"  width="200" height="28" fill="#cffafe" stroke="#0891b2" stroke-width="1" rx="3"/>
      <text x="100" y="50" text-anchor="middle">DofPass</text>

      <rect x="0" y="64"  width="200" height="28" fill="#cffafe" stroke="#0891b2" stroke-width="1" rx="3"/>
      <text x="100" y="82" text-anchor="middle">GodrayPass · BloomPass</text>

      <rect x="0" y="96"  width="200" height="28" fill="#cffafe" stroke="#0891b2" stroke-width="1" rx="3"/>
      <text x="100" y="114" text-anchor="middle">WaterPass</text>

      <rect x="0" y="128" width="200" height="28" fill="#cffafe" stroke="#0891b2" stroke-width="1" rx="3"/>
      <text x="100" y="146" text-anchor="middle">ParticlePass</text>
    </g>
  </g>

  <!-- Bidirectional load/write arrows between HDR and post chip stack — placed in
       the gap between the Godray/Bloom chip (ends y=232) and Water chip (starts y=236). -->
  <g stroke="#0891b2" stroke-width="1.4">
    <line x1="612" y1="231" x2="658" y2="231" marker-end="url(#hdrArr2)"/>
    <line x1="658" y1="237" x2="612" y2="237" marker-end="url(#hdrArr2)"/>
  </g>
  <text x="635" y="222" text-anchor="middle" font-size="10" font-style="italic" fill="#0891b2">load + write</text>

  <!-- Sky pass on the LEFT — also writes HDR initially -->
  <g transform="translate(60, 140)">
    <rect x="0" y="0" width="200" height="60" fill="#dbeafe" stroke="#1d4ed8" stroke-width="1.4" rx="6"/>
    <text x="100" y="22" text-anchor="middle" font-weight="700" fill="#1e3a8a">SkyTexturePass</text>
    <text x="100" y="40" text-anchor="middle" font-size="10" fill="#1e3a8a">background fill</text>
    <text x="100" y="54" text-anchor="middle" font-size="10" fill="#1e3a8a">runs before geometry</text>
  </g>

  <line x1="260" y1="170" x2="310" y2="170" stroke="#374151" stroke-width="1.4" marker-end="url(#hdrArr)"/>

  <!-- Arrow down from HDR to Composite -->
  <line x1="460" y1="300" x2="460" y2="338" stroke="#374151" stroke-width="1.6" marker-end="url(#hdrArr)"/>
  <text x="476" y="324" font-size="11" font-style="italic" fill="#374151">final HDR</text>

  <!-- Composite pass -->
  <g transform="translate(310, 340)">
    <rect x="0" y="0" width="300" height="56" fill="#e5e7eb" stroke="#374151" stroke-width="1.4" rx="6"/>
    <text x="150" y="22" text-anchor="middle" font-weight="700" fill="#111827">CompositePass</text>
    <text x="150" y="40" text-anchor="middle" font-size="10" fill="#374151">tonemap (ACES) · fog · stars · underwater</text>
  </g>

  <!-- Arrow down to swap chain -->
  <line x1="460" y1="396" x2="460" y2="430" stroke="#374151" stroke-width="1.6" marker-end="url(#hdrArr)"/>

  <!-- Swap chain -->
  <g transform="translate(310, 432)">
    <rect x="0" y="0" width="300" height="50" fill="#bbf7d0" stroke="#15803d" stroke-width="1.4" rx="6"/>
    <text x="150" y="22" text-anchor="middle" font-weight="700" fill="#14532d">swap chain</text>
    <text x="150" y="40" text-anchor="middle" font-size="10" fill="#14532d">rgba16float display-p3 (HDR) or sRGB fallback</text>
  </g>
</svg>
