<svg xmlns="http://www.w3.org/2000/svg" viewBox="0 0 920 480" font-family="system-ui, -apple-system, sans-serif" font-size="13">
  <rect width="920" height="480" fill="#ffffff"/>
  <text x="460" y="26" text-anchor="middle" font-size="16" font-weight="600" fill="#111827">Player &amp; Camera Controllers: Input → Velocity → Transform</text>

  <defs>
    <marker id="pcArr" viewBox="0 0 10 10" refX="9" refY="5" markerWidth="9" markerHeight="9" orient="auto-start-reverse">
      <path d="M0,0 L10,5 L0,10 z" fill="#374151"/>
    </marker>
  </defs>

  <!-- ===== LEFT: 3 input sources stacked ===== -->
  <g transform="translate(40, 60)">
    <text x="100" y="0" text-anchor="middle" font-weight="700" fill="#111827">input sources</text>

    <!-- Keyboard -->
    <g transform="translate(0, 14)">
      <rect width="200" height="78" fill="#eff6ff" stroke="#2563eb" stroke-width="1.4" rx="6"/>
      <text x="14" y="22" font-weight="700" fill="#1e3a8a">keyboard</text>
      <g font-size="11" fill="#1e3a8a">
        <text x="14" y="40">W A S D → moveDir</text>
        <text x="14" y="56">Space → jump</text>
        <text x="14" y="72">Shift → sprint</text>
      </g>
    </g>

    <!-- Mouse -->
    <g transform="translate(0, 102)">
      <rect width="200" height="60" fill="#eff6ff" stroke="#2563eb" stroke-width="1.4" rx="6"/>
      <text x="14" y="22" font-weight="700" fill="#1e3a8a">mouse (pointer-locked)</text>
      <g font-size="11" fill="#1e3a8a">
        <text x="14" y="40">delta.x → yaw</text>
        <text x="14" y="56">delta.y → pitch (clamped)</text>
      </g>
    </g>

    <!-- Touch -->
    <g transform="translate(0, 172)">
      <rect width="200" height="78" fill="#eff6ff" stroke="#2563eb" stroke-width="1.4" rx="6"/>
      <text x="14" y="22" font-weight="700" fill="#1e3a8a">touch overlay</text>
      <g font-size="11" fill="#1e3a8a">
        <text x="14" y="40">joystick → inputForward,</text>
        <text x="14" y="56">           inputStrafe</text>
        <text x="14" y="72">drag → applyLookDelta()</text>
      </g>
    </g>
  </g>

  <!-- 3 arrows from input boxes → controller -->
  <g stroke="#374151" stroke-width="1.4">
    <line x1="244" y1="113" x2="304" y2="160" marker-end="url(#pcArr)"/>
    <line x1="244" y1="192" x2="304" y2="200" marker-end="url(#pcArr)"/>
    <line x1="244" y1="270" x2="304" y2="240" marker-end="url(#pcArr)"/>
  </g>

  <!-- ===== MIDDLE: PlayerController logic ===== -->
  <g transform="translate(310, 60)">
    <text x="160" y="0" text-anchor="middle" font-weight="700" fill="#7c3aed">PlayerController.update(dt)</text>

    <!-- Box -->
    <rect x="0" y="14" width="320" height="240" fill="#ede9fe" stroke="#7c3aed" stroke-width="1.4" rx="6"/>

    <g font-family="ui-monospace, Consolas, monospace" font-size="11" fill="#4c1d95" transform="translate(14, 0)">
      <text x="0" y="36" font-weight="700">1.</text>
      <text x="20" y="36">camera-relative forward / right</text>
      <text x="20" y="50" font-size="10" fill="#7c3aed">from yaw/pitch</text>

      <text x="0" y="76" font-weight="700">2.</text>
      <text x="20" y="76">moveDir = WASD + joystick</text>
      <text x="20" y="90" font-size="10" fill="#7c3aed">unit length, scaled by speed</text>

      <text x="0" y="116" font-weight="700">3.</text>
      <text x="20" y="116">velocity.y += gravity · dt</text>

      <text x="0" y="142" font-weight="700">4.</text>
      <text x="20" y="142">collideAndSlide(dt)</text>
      <text x="20" y="156" font-size="10" fill="#7c3aed">AABB vs world chunks · 3-axis</text>

      <text x="0" y="182" font-weight="700">5.</text>
      <text x="20" y="182">position += velocity · dt</text>

      <text x="0" y="208" font-weight="700">6.</text>
      <text x="20" y="208">CameraController: rotation</text>
      <text x="20" y="222" font-size="10" fill="#7c3aed">= Quaternion.fromEuler(pitch, yaw, 0)</text>
    </g>
  </g>

  <!-- Arrow controller → transform -->
  <line x1="638" y1="180" x2="678" y2="180" stroke="#374151" stroke-width="1.6" marker-end="url(#pcArr)"/>

  <!-- ===== RIGHT: GameObject transform output ===== -->
  <g transform="translate(680, 60)">
    <text x="100" y="0" text-anchor="middle" font-weight="700" fill="#111827">GameObject transform</text>

    <rect x="0" y="14" width="200" height="240" fill="#fef3c7" stroke="#a16207" stroke-width="1.4" rx="6"/>

    <g font-family="ui-monospace, Consolas, monospace" font-size="11" fill="#713f12">
      <text x="14" y="36" font-weight="700">position : Vec3</text>
      <text x="14" y="52" font-size="10">x, y, z in world units</text>

      <text x="14" y="82" font-weight="700">rotation : Quat</text>
      <text x="14" y="98" font-size="10">yaw + pitch (no roll)</text>

      <text x="14" y="128" font-weight="700">velY : f32</text>
      <text x="14" y="144" font-size="10">vertical speed (jump/fall)</text>

      <text x="14" y="174" font-weight="700">_onGround : bool</text>
      <text x="14" y="190" font-size="10">enables jump, footsteps</text>

      <text x="14" y="220" font-weight="700">_coyoteFrames</text>
      <text x="14" y="236" font-size="10">jump after walking off edge</text>
    </g>
  </g>

  <!-- ===== Bottom: collision detail ===== -->
  <g transform="translate(40, 326)">
    <rect width="840" height="120" fill="#f9fafb" stroke="#9ca3af" stroke-width="1" rx="6"/>
    <text x="14" y="22" font-weight="700" fill="#111827">collideAndSlide: solve each axis independently against the world AABB</text>

    <g font-size="11" fill="#374151" transform="translate(14, 0)">
      <text x="0" y="46">· apply X movement, sweep against blocks, clamp at the first hit</text>
      <text x="0" y="64">· apply Z movement, sweep again (axis-aligned, no diagonal corner squeeze)</text>
      <text x="0" y="82">· apply Y movement (gravity / jump): land sets velY = 0 and _onGround = true</text>
      <text x="0" y="104" font-style="italic" fill="#6b7280">auto-jump kicks in when walking into a 1-block obstacle with air above (mobile-friendly).</text>
    </g>
  </g>
</svg>
