<svg xmlns="http://www.w3.org/2000/svg" viewBox="0 0 920 480" font-family="system-ui, -apple-system, sans-serif" font-size="13">
  <rect width="920" height="480" fill="#ffffff"/>
  <text x="460" y="26" text-anchor="middle" font-size="16" font-weight="600" fill="#111827">GameObject + Components: Same Container, Different Capabilities</text>

  <!-- ===== TOP: GameObject anatomy ===== -->
  <g transform="translate(40, 60)">
    <text x="0" y="0" font-weight="700" fill="#111827">GameObject</text>

    <rect x="0" y="14" width="840" height="120" fill="#fef3c7" stroke="#a16207" stroke-width="1.4" rx="6"/>

    <!-- Implicit transform on the left -->
    <g transform="translate(20, 26)">
      <rect x="0" y="0" width="200" height="96" fill="#fff" stroke="#a16207" stroke-width="1.2" rx="4"/>
      <text x="100" y="22" text-anchor="middle" font-weight="700" fill="#713f12">implicit transform</text>
      <g font-size="11" font-family="ui-monospace, Consolas, monospace" fill="#713f12">
        <text x="14" y="42">position : Vec3</text>
        <text x="14" y="58">rotation : Quaternion</text>
        <text x="14" y="74">scale    : Vec3</text>
        <text x="14" y="90">parent   : GameObject?</text>
      </g>
    </g>

    <!-- Component slots on the right -->
    <g transform="translate(240, 26)">
      <text x="0" y="-2" font-size="11" font-weight="700" fill="#713f12">+ any number of components attached:</text>
      <!-- Component chips -->
      <g font-size="11" text-anchor="middle">
        <rect x="0"   y="6" width="120" height="32" fill="#dbeafe" stroke="#2563eb" stroke-width="1" rx="3"/>
        <text x="60"  y="26" fill="#1e3a8a">MeshRenderer</text>

        <rect x="128" y="6" width="120" height="32" fill="#dbeafe" stroke="#2563eb" stroke-width="1" rx="3"/>
        <text x="188" y="26" fill="#1e3a8a">Camera</text>

        <rect x="256" y="6" width="120" height="32" fill="#dbeafe" stroke="#2563eb" stroke-width="1" rx="3"/>
        <text x="316" y="26" fill="#1e3a8a">DirectionalLight</text>

        <rect x="384" y="6" width="120" height="32" fill="#dbeafe" stroke="#2563eb" stroke-width="1" rx="3"/>
        <text x="444" y="26" font-size="10" fill="#1e3a8a">PointLight / SpotLight</text>

        <rect x="0"   y="46" width="120" height="32" fill="#dbeafe" stroke="#2563eb" stroke-width="1" rx="3"/>
        <text x="60"  y="66" fill="#1e3a8a">PlayerController</text>

        <rect x="128" y="46" width="120" height="32" fill="#dbeafe" stroke="#2563eb" stroke-width="1" rx="3"/>
        <text x="188" y="66" fill="#1e3a8a">CameraControls</text>

        <rect x="256" y="46" width="120" height="32" fill="#dbeafe" stroke="#2563eb" stroke-width="1" rx="3"/>
        <text x="316" y="66" fill="#1e3a8a">AudioSource</text>

        <rect x="384" y="46" width="120" height="32" fill="#dbeafe" stroke="#2563eb" stroke-width="1" rx="3"/>
        <text x="444" y="66" font-size="10" fill="#1e3a8a">your custom Component</text>
      </g>
    </g>
  </g>

  <!-- ===== MIDDLE: 3 example GameObjects with different combinations ===== -->
  <g transform="translate(40, 220)">
    <text x="0" y="0" font-weight="700" fill="#111827">Three example GameObjects · same class, different attached components</text>

    <!-- Player -->
    <g transform="translate(0, 14)">
      <rect width="270" height="160" fill="#f0fdf4" stroke="#15803d" stroke-width="1.4" rx="6"/>
      <rect width="270" height="28" fill="#dcfce7"/>
      <text x="135" y="20" text-anchor="middle" font-weight="700" fill="#14532d">"Player"</text>

      <g font-size="11" text-anchor="middle">
        <rect x="20" y="40"  width="230" height="26" fill="#fff" stroke="#15803d" stroke-width="1" rx="3"/>
        <text x="135" y="58" fill="#14532d">Camera</text>

        <rect x="20" y="72"  width="230" height="26" fill="#fff" stroke="#15803d" stroke-width="1" rx="3"/>
        <text x="135" y="90" fill="#14532d">PlayerController</text>

        <rect x="20" y="104" width="230" height="26" fill="#fff" stroke="#15803d" stroke-width="1" rx="3"/>
        <text x="135" y="122" fill="#14532d">AudioSource (footsteps)</text>
      </g>

      <text x="135" y="150" text-anchor="middle" font-size="10" font-style="italic" fill="#15803d">moves, listens, hears</text>
    </g>

    <!-- Sun light -->
    <g transform="translate(285, 14)">
      <rect width="270" height="160" fill="#fef9c3" stroke="#ca8a04" stroke-width="1.4" rx="6"/>
      <rect width="270" height="28" fill="#fef3c7"/>
      <text x="135" y="20" text-anchor="middle" font-weight="700" fill="#713f12">"Sun"</text>

      <g font-size="11" text-anchor="middle">
        <rect x="20" y="40"  width="230" height="26" fill="#fff" stroke="#ca8a04" stroke-width="1" rx="3"/>
        <text x="135" y="58" fill="#713f12">DirectionalLight</text>
      </g>

      <text x="135" y="150" text-anchor="middle" font-size="10" font-style="italic" fill="#a16207">just a transform + 1 component</text>
    </g>

    <!-- Mining torch -->
    <g transform="translate(570, 14)">
      <rect width="270" height="160" fill="#eff6ff" stroke="#2563eb" stroke-width="1.4" rx="6"/>
      <rect width="270" height="28" fill="#dbeafe"/>
      <text x="135" y="20" text-anchor="middle" font-weight="700" fill="#1e3a8a">"Torch"</text>

      <g font-size="11" text-anchor="middle">
        <rect x="20" y="40"  width="230" height="26" fill="#fff" stroke="#2563eb" stroke-width="1" rx="3"/>
        <text x="135" y="58" fill="#1e3a8a">MeshRenderer (torch model)</text>

        <rect x="20" y="72"  width="230" height="26" fill="#fff" stroke="#2563eb" stroke-width="1" rx="3"/>
        <text x="135" y="90" fill="#1e3a8a">PointLight (warm glow)</text>

        <rect x="20" y="104" width="230" height="26" fill="#fff" stroke="#2563eb" stroke-width="1" rx="3"/>
        <text x="135" y="122" fill="#1e3a8a">AudioSource (crackle loop)</text>
      </g>

      <text x="135" y="150" text-anchor="middle" font-size="10" font-style="italic" fill="#2563eb">visible · lit · audible</text>
    </g>
  </g>

  <!-- ===== Bottom: lifecycle ===== -->
  <g transform="translate(40, 416)">
    <rect width="840" height="50" fill="#f9fafb" stroke="#9ca3af" stroke-width="1" rx="6"/>
    <text x="14" y="22" font-weight="700" fill="#111827">Component lifecycle: start() once · update(dt) every frame · destroy() on removal</text>
    <text x="14" y="40" font-size="11" fill="#374151">Scene.update(dt) walks all active GameObjects and calls update() on every component.</text>
  </g>
</svg>
